<svg xmlns="http://www.w3.org/2000/svg" xmlns:xlink="http://www.w3.org/1999/xlink" xmlns:fi="http://pattern.flaticon.com/" x="0" y="0" width="1440" height="720" viewBox="0 0 1431.8181818181818 715.9090909090909"><rect x="0px" y="0px" width="100%" height="100%" opacity="1" fill="#ffffff"/><defs><g transform="matrix(0.47592607140541077 0 0 0.47592607140541077 305 305)" id="L1_1588"><path d="M154.125,20.833c2.711-1.114,4.903-2.993,4.836-6.215c-0.096-4.495-4.506-8.166-7.884-10.466   c-3.788-2.578-8.724-4.754-13.395-4.001c-5.354,0.863-5.799,6.689-4.966,10.991c0.134,0.693,0.317,1.372,0.521,2.046   c-25.736-4.923-53.776-2.321-79.729,0.332c0.149-0.212,0.261-0.461,0.26-0.788c-0.01-3.465-0.841-7.036-4.195-8.715   c-2.74-1.371-5.999-0.84-8.664,0.422c-2.654,1.256-4.689,3.671-4.976,6.629c-0.242,2.493,1.21,4.587,3.058,6.215   c-3.575,0.59-7.205,1.842-8.536,5.367c-1.25,3.309,1.467,6.819,3.875,8.754c2.866,2.304,6.852,3.814,10.531,2.989   c3.58-0.803,4.995-4.012,5.253-7.297c3.891,1.513,9.012,1.238,12.861,1.36c8.039,0.256,16.126-0.408,24.162-0.592   c16.524-0.379,33.501,2.271,49.91-0.662c-1.134,2.748-1.379,5.954,1.696,7.541c3.34,1.723,7.92,0.302,11.115-1.084   c2.98-1.293,7.113-3.624,7.739-7.168C158.083,23.745,156.376,21.985,154.125,20.833z M154.225,25.945   c-0.508,2.215-3.75,3.888-5.706,4.824c-2.397,1.147-5.397,2.07-8.061,1.493c-2.974-0.644-1.155-4.916-0.474-6.66   c0.165-0.422-0.005-0.756-0.295-0.956c-0.24-0.524-0.721-0.925-1.405-0.904c-8.507,0.26-16.938,1.104-25.472,1.09   c-7.858-0.012-15.69-0.717-23.546-0.613c-7.345,0.097-14.681,0.624-22.024,0.828c-5.556,0.154-11.626-0.999-17.178-0.619   c-0.227-1.055-1.809-1.047-1.852,0.133c-0.001,0.015-0.002,0.031-0.003,0.046c-0.015,0.002-0.03,0.002-0.044,0.004   c-0.725,0.104-0.657,1.07-0.183,1.4c0.031,0.021,0.069,0.035,0.101,0.056c-0.316,2.476-1.288,4.848-4.041,5.351   c-2.477,0.452-5.254-0.981-7.187-2.361c-1.498-1.069-3.733-3.139-3.39-5.14c0.576-3.367,6.871-4.02,9.384-4.227   c1.382-0.114,2.021-1.906,0.726-2.682c-2.139-1.283-4.764-3.144-4.608-5.942c0.103-1.85,1.98-3.266,3.454-4.044   c1.652-0.871,3.918-1.252,5.681-0.49c2.405,1.039,2.912,3.845,2.756,6.197c-0.031,0.473,0.144,0.825,0.419,1.06   c-0.495,0.249-0.417,1.044,0.247,1.105c27.494,2.536,54.967-3.848,82.37,1.826c1.033,0.214,1.773-0.449,2.019-1.235   c0.51-0.279,0.848-0.822,0.621-1.566c-0.837-2.763-2.946-9.248,1.122-10.632c3.421-1.163,7.708,1.014,10.562,2.713   c2.925,1.742,6.454,4.409,7.453,7.839c1.14,3.914-5.142,4.791-7.92,5.09c-1.748,0.188-2.465,2.928-0.449,3.314   c2.069,0.396,4.199,0.865,5.994,2.019C154.193,24.842,154.334,25.471,154.225,25.945z"/><path d="M103.127,168.979c-2.539-22.621-2.858-46.044-1.634-68.751c0.551-10.205,1.156-20.425,0.622-30.644   c-0.142-2.708-0.281-8.293-2.002-11.777c3.433-0.06,7.279-2.211,8.79-4.974c1.83-3.346,0.795-7.494-0.932-10.641   c-1.606-2.926-4.532-5.94-8.027-6.268c-2.209-0.207-3.849,0.814-5.043,2.332c-0.647-1.777-1.818-3.252-3.892-3.826   c-3.17-0.878-6.587,1.185-8.758,3.309c-2.531,2.475-4.047,5.989-3.45,9.529c0.656,3.888,5.006,6.842,8.815,7.402   c-2.001,17.94-0.673,36.772-0.704,54.793c-0.034,19.466-0.728,38.996-0.182,58.457c-3.468-1.77-8.673-2.321-11.034,1.011   c-2.301,3.248-1.009,7.651,0.629,10.875c1.725,3.396,4.803,6.607,8.747,7.016c3.104,0.321,5.239-1.82,6.702-4.463   c2.842,6.327,11.437,9.257,17.703,4.103C116.842,180.404,111.925,167.159,103.127,168.979z M107.329,184.313   c-5.53,5.614-14.666-1.033-13.286-7.897c0.392-1.954-2.469-2.785-3.007-0.829c-0.768,2.788-2.187,8.182-5.963,8.012   c-2.488-0.112-4.492-3.218-5.535-5.116c-1.055-1.92-2.203-5.059-1.224-7.22c1.386-3.061,6.402-1.14,9-0.694   c0.592,0.294,1.464,0.004,1.527-0.876c1.372-19.093,1.073-38.358,1.233-57.491c0.159-19.076,1.635-39.095-0.557-58.073   c0.159-0.438,0.053-0.984-0.406-1.263c-2.803-1.702-6.353-2.511-7.292-6.106c-0.621-2.377,0.884-4.888,2.439-6.548   c1.429-1.525,3.435-2.926,5.607-2.86c2.756,0.083,2.814,4.272,2.75,6.143c-0.058,1.712,2.508,2.019,2.948,0.399   c0.559-2.061,1.715-5.395,4.461-4.826c2.338,0.484,4.104,2.776,5.213,4.725c1.159,2.033,1.994,4.882,1.01,7.147   c-1.637,3.768-5.891,2.601-8.897,3.962c-0.051,0.023-0.09,0.063-0.135,0.093c-0.114,0.02-0.199,0.112-0.244,0.222   c-0.409,0.514-0.411,1.384,0.038,1.862c0.236,1.491,0.835,3.008,1.102,4.433c0.799,4.267,0.891,8.691,0.985,13.019   c0.214,9.765-0.47,19.561-0.889,29.313c-0.392,9.151-0.014,18.118,0.271,27.261c0.403,12.963,0.133,25.985,1.978,38.851   c-0.003,0.002-0.006,0.003-0.009,0.004c-1.729,0.908-0.21,3.513,1.516,2.631c0.435-0.002,0.866-0.159,1.139-0.47   c2.932-0.948,5.404,0.601,6.604,3.662C110.969,179.003,109.598,182.009,107.329,184.313z"/></g><path d="M165,0C74.019,0,0,74.019,0,165s74.019,165,165,165c90.982,0,165-74.019,165-165S255.982,0,165,0z" transform="matrix(0.03030303120613098 0 0 0.03030303120613098 345 82.5)" id="L1_1594" fill="#ddc2b0"/><g transform="matrix(-0.3172840476036072 0 0 0.3172840476036072 117.22332840368654 57.5)" id="L1_1590"><path d="M154.125,20.833c2.711-1.114,4.903-2.993,4.836-6.215c-0.096-4.495-4.506-8.166-7.884-10.466   c-3.788-2.578-8.724-4.754-13.395-4.001c-5.354,0.863-5.799,6.689-4.966,10.991c0.134,0.693,0.317,1.372,0.521,2.046   c-25.736-4.923-53.776-2.321-79.729,0.332c0.149-0.212,0.261-0.461,0.26-0.788c-0.01-3.465-0.841-7.036-4.195-8.715   c-2.74-1.371-5.999-0.84-8.664,0.422c-2.654,1.256-4.689,3.671-4.976,6.629c-0.242,2.493,1.21,4.587,3.058,6.215   c-3.575,0.59-7.205,1.842-8.536,5.367c-1.25,3.309,1.467,6.819,3.875,8.754c2.866,2.304,6.852,3.814,10.531,2.989   c3.58-0.803,4.995-4.012,5.253-7.297c3.891,1.513,9.012,1.238,12.861,1.36c8.039,0.256,16.126-0.408,24.162-0.592   c16.524-0.379,33.501,2.271,49.91-0.662c-1.134,2.748-1.379,5.954,1.696,7.541c3.34,1.723,7.92,0.302,11.115-1.084   c2.98-1.293,7.113-3.624,7.739-7.168C158.083,23.745,156.376,21.985,154.125,20.833z M154.225,25.945   c-0.508,2.215-3.75,3.888-5.706,4.824c-2.397,1.147-5.397,2.07-8.061,1.493c-2.974-0.644-1.155-4.916-0.474-6.66   c0.165-0.422-0.005-0.756-0.295-0.956c-0.24-0.524-0.721-0.925-1.405-0.904c-8.507,0.26-16.938,1.104-25.472,1.09   c-7.858-0.012-15.69-0.717-23.546-0.613c-7.345,0.097-14.681,0.624-22.024,0.828c-5.556,0.154-11.626-0.999-17.178-0.619   c-0.227-1.055-1.809-1.047-1.852,0.133c-0.001,0.015-0.002,0.031-0.003,0.046c-0.015,0.002-0.03,0.002-0.044,0.004   c-0.725,0.104-0.657,1.07-0.183,1.4c0.031,0.021,0.069,0.035,0.101,0.056c-0.316,2.476-1.288,4.848-4.041,5.351   c-2.477,0.452-5.254-0.981-7.187-2.361c-1.498-1.069-3.733-3.139-3.39-5.14c0.576-3.367,6.871-4.02,9.384-4.227   c1.382-0.114,2.021-1.906,0.726-2.682c-2.139-1.283-4.764-3.144-4.608-5.942c0.103-1.85,1.98-3.266,3.454-4.044   c1.652-0.871,3.918-1.252,5.681-0.49c2.405,1.039,2.912,3.845,2.756,6.197c-0.031,0.473,0.144,0.825,0.419,1.06   c-0.495,0.249-0.417,1.044,0.247,1.105c27.494,2.536,54.967-3.848,82.37,1.826c1.033,0.214,1.773-0.449,2.019-1.235   c0.51-0.279,0.848-0.822,0.621-1.566c-0.837-2.763-2.946-9.248,1.122-10.632c3.421-1.163,7.708,1.014,10.562,2.713   c2.925,1.742,6.454,4.409,7.453,7.839c1.14,3.914-5.142,4.791-7.92,5.09c-1.748,0.188-2.465,2.928-0.449,3.314   c2.069,0.396,4.199,0.865,5.994,2.019C154.193,24.842,154.334,25.471,154.225,25.945z"/><path d="M103.127,168.979c-2.539-22.621-2.858-46.044-1.634-68.751c0.551-10.205,1.156-20.425,0.622-30.644   c-0.142-2.708-0.281-8.293-2.002-11.777c3.433-0.06,7.279-2.211,8.79-4.974c1.83-3.346,0.795-7.494-0.932-10.641   c-1.606-2.926-4.532-5.94-8.027-6.268c-2.209-0.207-3.849,0.814-5.043,2.332c-0.647-1.777-1.818-3.252-3.892-3.826   c-3.17-0.878-6.587,1.185-8.758,3.309c-2.531,2.475-4.047,5.989-3.45,9.529c0.656,3.888,5.006,6.842,8.815,7.402   c-2.001,17.94-0.673,36.772-0.704,54.793c-0.034,19.466-0.728,38.996-0.182,58.457c-3.468-1.77-8.673-2.321-11.034,1.011   c-2.301,3.248-1.009,7.651,0.629,10.875c1.725,3.396,4.803,6.607,8.747,7.016c3.104,0.321,5.239-1.82,6.702-4.463   c2.842,6.327,11.437,9.257,17.703,4.103C116.842,180.404,111.925,167.159,103.127,168.979z M107.329,184.313   c-5.53,5.614-14.666-1.033-13.286-7.897c0.392-1.954-2.469-2.785-3.007-0.829c-0.768,2.788-2.187,8.182-5.963,8.012   c-2.488-0.112-4.492-3.218-5.535-5.116c-1.055-1.92-2.203-5.059-1.224-7.22c1.386-3.061,6.402-1.14,9-0.694   c0.592,0.294,1.464,0.004,1.527-0.876c1.372-19.093,1.073-38.358,1.233-57.491c0.159-19.076,1.635-39.095-0.557-58.073   c0.159-0.438,0.053-0.984-0.406-1.263c-2.803-1.702-6.353-2.511-7.292-6.106c-0.621-2.377,0.884-4.888,2.439-6.548   c1.429-1.525,3.435-2.926,5.607-2.86c2.756,0.083,2.814,4.272,2.75,6.143c-0.058,1.712,2.508,2.019,2.948,0.399   c0.559-2.061,1.715-5.395,4.461-4.826c2.338,0.484,4.104,2.776,5.213,4.725c1.159,2.033,1.994,4.882,1.01,7.147   c-1.637,3.768-5.891,2.601-8.897,3.962c-0.051,0.023-0.09,0.063-0.135,0.093c-0.114,0.02-0.199,0.112-0.244,0.222   c-0.409,0.514-0.411,1.384,0.038,1.862c0.236,1.491,0.835,3.008,1.102,4.433c0.799,4.267,0.891,8.691,0.985,13.019   c0.214,9.765-0.47,19.561-0.889,29.313c-0.392,9.151-0.014,18.118,0.271,27.261c0.403,12.963,0.133,25.985,1.978,38.851   c-0.003,0.002-0.006,0.003-0.009,0.004c-1.729,0.908-0.21,3.513,1.516,2.631c0.435-0.002,0.866-0.159,1.139-0.47   c2.932-0.948,5.404,0.601,6.604,3.662C110.969,179.003,109.598,182.009,107.329,184.313z"/></g><g transform="matrix(0.21314121782779694 0 0 0.21314121782779694 242.5 67.5)" id="L1_1591"><path d="M75.144,174.468c-2.112-3.686-6.268-4.346-9.853-2.718c0.04-27.279-1.565-54.586,0.057-81.838   c1.343-22.578,4.671-48.009-3.526-69.761c3.209,0.64,7.055-0.528,7.83-3.899c0.889-3.868-1.63-8.035-3.921-10.923   c-2.391-3.015-6.055-5.837-10.107-5.251c-4.005,0.579-5.662,4.874-6.446,8.789c-2.137-2.68-5.036-5.154-8.268-3.716   c-3.239,1.44-4.007,6.052-4.193,9.157c-0.214,3.566,0.297,8.032,2.864,10.743c2.661,2.811,5.916,1.341,8.287-0.837   c1.661,26.455,3.438,52.701,3.06,79.26c-0.328,23.001,3.263,46.731-1.337,69.454c-6.668-1.51-13.337,2.266-9.473,9.931   c1.463,2.901,4.491,4.734,7.697,4.809c3.527,0.081,6.369-2.385,8.512-5.133c2.805,5.605,11.081,6.551,16.355,2.568   C75.774,182.765,77.15,177.971,75.144,174.468z M68.66,183.798c-4.177,1.705-9.853,0.13-10.131-4.944   c-0.086-1.563-2.099-2.177-2.954-0.8c-2.679,4.316-8.41,9.66-12.471,3.654c-1.061-1.569-1.391-3.526-0.445-5.204   c1.183-2.098,4.609-1.759,6.977-1.429c0.65,0.912,2.298,1.004,2.651-0.396c5.583-22.166,1.371-45.874,1.821-68.435   c0.556-27.912,0.494-56.622-4.31-84.219c0.112-0.153,0.236-0.298,0.345-0.454c0.431-0.61-0.064-1.247-0.658-1.375   c-0.007-0.039-0.013-0.077-0.02-0.116c-0.19-1.042-1.907-0.8-1.841,0.249c0.021,0.341,0.043,0.68,0.064,1.021   c-1.029,0.953-2.146,1.816-3.494,2.263c-1.06,0.351-1.684,0.083-2.335-0.604c-1.74-1.838-2.049-5.435-2.011-7.99   c0.033-2.25,0.548-5.817,2.102-6.928c0.413-0.295,0.494-0.292,0.893-0.294c0.328-0.002,0.968,0.263,1.464,0.567   c1.905,1.166,3.298,3.273,4.5,5.092c0.851,1.289,2.612,0.705,2.758-0.747C51.875,9.633,52.557,3.694,56.43,3   c2.564-0.459,5.42,2.501,6.94,4.33c1.744,2.098,3.428,5.058,3.294,7.812c-0.036,0.752-0.404,1.41-1.134,1.688   c-1.81,0.688-3.704-0.199-5.538-0.107c-1.304,0.066-1.768,1.688-0.704,2.426c6.454,23.233,4.38,46.983,2.928,70.762   c-1.683,27.57-0.075,55.25,0.094,82.846c0.005,0.867,0.615,1.322,1.279,1.408c0.245,0.409,0.702,0.681,1.297,0.52   c3.002-0.816,6.416-1.806,7.772,2.01C73.816,179.955,71.45,182.66,68.66,183.798z"/><path d="M150.931,174.65c-0.618-4.006-6.219-3.91-9.432-3.567c0.852-27.19-0.892-54.507-1.498-81.694   c-0.52-23.309-3.789-46.501-1.635-69.797c0.17,0.015,0.349,0.01,0.542-0.038c7.979-1.96,7.568-9.524,2.555-14.641   c-5.888-6.012-12.415-3.368-15.892,2.443c-3.741-5.587-12.633-7.396-17.6-2.053c-2.751,2.96-1.762,7.571,0.539,10.378   c2.821,3.443,8.754,3.14,12.531,1.33c5.884,25.727,6.194,50.675,4.681,76.965c-1.416,24.591-3.537,49.886,1.954,74.138   c-3.787-0.537-8.547,0.176-10.126,3.63c-1.606,3.511,0.663,7.467,2.905,10.112c2.291,2.701,6.004,5.273,9.716,4.696   c1.754-0.271,2.951-1.229,3.767-2.516c0.683,0.907,1.618,1.617,2.905,1.982c3.4,0.969,7.076-1.151,9.643-3.169   C148.913,180.943,151.438,177.935,150.931,174.65z M144.214,180.576c-1.622,1.347-4.247,2.873-6.36,2.496   c-1.693-0.303-2.303-1.887-2.473-3.611c0.149-1.277,0.161-2.551,0.102-3.656c-0.11-2.026-2.978-2.003-3.128,0   c-0.045,0.599-0.07,1.231-0.069,1.875c-0.084,1.325-0.28,2.674-0.808,3.836c-0.479,1.053-1.254,1.66-1.934,1.736   c-2.39,0.268-4.895-1.812-6.551-3.589c-1.594-1.711-3.239-4.408-2.579-6.521c0.817-2.616,5.235-2.407,8.156-2.402   c0.435,0.315,1.046,0.276,1.492-0.042c0.014-0.001,0.032-0.002,0.046-0.003c1.072-0.101,1.3-1.422,0.376-1.875   c-4.971-25.683-3.24-51.393-1.705-77.332c1.474-24.912,3.136-52.255-6.15-75.982c-0.286-0.733-1.102-0.793-1.543-0.407   c-2.695,0.593-5.173,0.667-7.882-0.095c-4.574-1.287-4.741-6.808-1.153-8.915c4.597-2.7,10.875,0.751,11.95,5.517   c0.366,1.622,2.6,1.413,3.069,0c1.888-5.682,6.118-9.169,11.488-5c3.732,2.898,5.245,8.065,0.093,9.745   c-0.08-0.903-1.6-1.035-1.825-0.081c-5.461,23.091-1.318,47.339-0.184,70.699c1.355,27.907,2.457,56.329,1.894,84.265   c-0.013,0.655,0.334,1.068,0.786,1.273c-0.225,0.935,0.247,1.982,1.457,1.841c1.869-0.217,3.846-0.405,5.687,0.088   c0.404,0.109,0.826,0.334,0.996,0.488c0.135,0.12,0.261,0.436,0.264,0.466C147.87,177.118,145.771,179.283,144.214,180.576z"/><path d="M118.874,106.877c-0.02-0.013-0.042-0.021-0.061-0.035c2.086-0.906,3.798-2.415,3.991-4.922   c0.226-2.919-2.149-5.671-4.243-7.389c-2.177-1.788-5.192-3.515-8.12-3.196c-3.462,0.377-4.529,3.612-4.271,6.688   c0.021,0.254,0.07,0.507,0.104,0.761c-9.29-0.22-18.727,0.078-27.994,0.604c0.133-0.155,0.234-0.34,0.254-0.56   c0.437-4.942-3.543-10.732-8.497-6.116c-4.178,3.894-3.072,9.109,0.814,12.168c-5.666,4.231-2.928,12.413,4.025,15.068   c0.585,0.223,1.212-0.152,1.528-0.622c1.943-2.894,2.434-5.572,1.687-8.864c10.037-0.531,22.071,3.497,31.51-0.108   c-1.497,1.87-2.664,4.199-1.322,6.318c1.415,2.235,4.685,2.12,6.947,1.693c2.513-0.476,5.273-1.812,6.607-4.09   C123.567,111.313,121.302,108.49,118.874,106.877z M118.318,113.934c-0.889,0.683-1.855,1.121-2.782,1.439   c-1.109,0.381-1.962,0.54-3.05,0.545c-0.599,0.002-0.643-0.001-1.205-0.146c-0.301-0.078-0.616-0.242-0.721-0.331   c-0.472-0.402-0.579-0.819-0.382-1.757c0.354-1.678,1.21-3.229,2.106-4.671c0.328-0.527-0.406-1.074-0.842-0.665   c-0.167-0.485-0.58-0.889-1.151-0.854c-5.601,0.334-10.853,0.725-16.48,0.31c-5.843-0.43-11.608-0.755-17.332,0.688   c-0.536,0.135-0.761,0.635-0.729,1.108c-0.185,0.263-0.278,0.602-0.205,0.998c0.457,2.493,0.278,4.309-0.84,6.327   c-4.254-2.331-6.678-8.634-0.603-10.572c1.175-0.375,1.518-2.058,0.353-2.698c-3.104-1.709-5.62-4.678-2.958-8.01   c3.034-3.8,4.626,0.555,5.048,3.456c0.042,0.292,0.178,0.484,0.357,0.601c-0.503,0.499-0.303,1.526,0.619,1.581   c9.786,0.569,19.774,0.896,29.585,0.631c0.631,0.726,1.867,0.364,2.062-0.59c0.501-0.658,0.396-1.688-0.292-2.196   c-0.192-1.139-0.317-2.29-0.062-3.427c0.216-0.959,0.686-1.453,1.331-1.655c0.795-0.249,1.764-0.064,2.756,0.26   c1.184,0.388,2.279,1.062,3.283,1.79c0.972,0.705,1.894,1.605,2.598,2.566c0.634,0.867,1.153,1.951,1.218,2.71   c0.081,0.944-0.174,1.457-0.994,2.158c-1.135,0.97-3.051,1.297-4.525,1.525c-1.199,0.187-1.461,2.167-0.347,2.653   c1.63,0.712,3.291,1.521,4.563,2.792c0.313,0.312,0.637,0.819,0.703,0.995c0.027,0.073,0.089,0.4,0.108,0.446   c0.003,0.084,0.007,0.167,0.005,0.251c0,0.018,0,0.023,0,0.038c-0.003,0.014-0.005,0.019-0.009,0.037   C119.382,112.885,118.868,113.511,118.318,113.934z"/></g><g transform="matrix(0.10184543579816818 0 0 0.10184543579816818 340 165)" id="L1_1592"><path d="M70.633,145.703c-1.449-2.054-4.047-2.23-6.243-1.407c-6.466-13.32-10.328-27.634-16.858-40.913   c-6.18-12.567-14.384-24.404-18.299-37.914c0.217-0.127,0.366-0.348,0.323-0.683c-0.46-3.594-1.339-7.103-2.449-10.55   c-0.735-2.281-1.521-5.015-2.836-7.206c2.821-0.533,5.631-1.825,6.158-4.859c0.564-3.25-1.683-6.318-4.05-8.285   c-2.643-2.196-6.154-3.662-9.612-2.863c-3.073,0.71-4.74,3.244-5.63,6.062c-1.452-1.868-3.423-3.18-5.879-2.076   c-2.826,1.271-4.189,4.967-4.813,7.761c-0.625,2.797-0.914,6.818,1.385,8.984c2.867,2.701,6.885,0.007,9.348-2.088   c0.528,2.627,1.827,5.227,2.862,7.664c1.276,3.004,2.634,5.874,4.582,8.509c0.001,0.001,0.003,0.002,0.004,0.003   c4.064,14.974,11.314,28.77,17.532,42.94c6.222,14.178,9.07,29.752,17.389,42.999c-2.796,0.503-5.52,1.821-6.774,4.491   c-1.168,2.487-0.191,5.196,1.622,7.076c1.623,1.682,4.139,2.657,6.441,2.036c2.269-0.611,3.283-2.69,3.684-4.85   c2.219,1.247,4.671,1.707,7.224,0.582c2.865-1.262,4.628-4.513,5.488-7.361C71.988,151.249,72.221,147.955,70.633,145.703z    M68.722,153.065c-0.563,2.08-1.718,4.194-3.551,5.403c-2.371,1.564-4.939,0.282-6.829-1.396c-0.909-0.808-2.346-0.271-2.383,0.987   c-0.047,1.627-0.233,4.06-2.149,4.526c-1.27,0.311-2.668-0.726-3.476-1.573c-3.329-3.488,1.651-6.224,4.75-7.725   c0.39,0.008,0.767-0.171,0.998-0.478c0.043-0.021,0.092-0.044,0.133-0.063c0.506-0.244,0.363-0.965-0.078-1.163   c-7.387-13.41-10.628-28.051-16.725-41.938c-6.895-15.705-14.944-30.919-20.387-47.228c-0.111-0.333-0.393-0.451-0.658-0.42   c-0.783-1.834-1.575-3.665-2.338-5.508c-1.132-2.734-1.863-5.803-3.502-8.275c-0.281-0.424-0.701-0.477-1.027-0.309   c-0.242-0.161-0.551-0.204-0.841-0.006c-1.604,1.094-5.37,3.75-7.068,1.874c-1.296-1.432-0.863-4.458-0.459-6.263   c0.454-2.027,1.427-4.737,3.181-5.795c0.508-0.307,0.929-0.35,1.562,0.149c1.292,1.02,2.019,2.711,2.64,4.183   c0.661,1.565,2.661,0.513,2.816-0.763c0.333-2.744,1.232-6.37,4.282-7.186c2.14-0.573,4.623,0.635,6.272,1.916   c1.577,1.226,3.322,3.188,3.358,5.154c0.043,2.32-3.845,2.767-5.875,2.859c-2.137,0.097-2.147,3.425,0,3.328   c0.016-0.001,0.034-0.002,0.05-0.003c0.555,2.627,2.006,5.174,2.946,7.64c0.781,2.05,1.506,4.112,2.219,6.179   c0.96,14.405,10.059,27.749,16.541,40.174c7.388,14.162,10.343,31.079,19.055,44.492c-0.329,0.89,0.252,2.074,1.38,1.661   c0.022-0.008,0.048-0.02,0.071-0.028c0.527,0.14,1.077-0.101,1.364-0.543c1.312-0.503,2.761-0.849,3.596,0.477   C69.597,149.004,69.181,151.367,68.722,153.065z"/><path d="M196.16,55.621c-0.482-2.698-2.089-5.592-4.67-6.763c-2.518-1.142-5.018-0.351-7.117,1.115   c-0.054-3.628-0.709-7.823-3.897-9.468c-2.908-1.501-6.17,0.431-8.216,2.491c-2.233,2.248-3.901,5.484-3.346,8.713   c0.611,3.556,4.713,4.861,7.962,4.446c-4.406,15.275-10.647,29.906-16.397,44.706c-5.607,14.435-11.979,30.443-12.664,46.125   c-0.477-1.822-3.562-1.38-5.043-0.311c-0.152-1.237-0.543-2.418-1.251-3.404c-1.852-2.578-5.128-2.644-7.916-1.685   c0.074-0.23,0.095-0.486-0.018-0.782c-2.524-6.636-6.545-13.019-10.154-19.102c-3.564-6.01-7.847-13.223-13.993-16.938   c-5.438-3.285-10.145-1.403-12.295,4.275c-4.213,11.125-9.6,21.76-13.845,32.866c-1.734-1.102-4.25-1.288-5.968-0.559   c-2.295,0.977-3.201,3.722-3.349,6.004c-0.144,2.229,0.541,4.745,2.444,6.071c0.856,0.598,1.762,0.703,2.646,0.521   c-0.428,1.681-0.464,3.4,0.383,4.906c1.298,2.309,4.217,2.536,6.558,2.214c4.593-0.635,11.724-4.046,12.044-9.394   c0.203-3.386-3.162-5.226-6.13-6.225c5.62-7.739,8.53-17.185,13.305-25.464c5.684,7.438,10.184,15.656,15.307,23.475   c-2.056-0.289-4.154,0.418-5.291,2.47c-1.477,2.664-0.599,6.021,0.56,8.616c1.042,2.336,3.054,5.134,5.827,5.38   c2.613,0.231,3.998-2.066,4.75-4.424c2.233,2.54,5.101,4.525,8.657,3.947c3.092-0.503,5.246-3.259,6.514-5.983   c0.121,0.524,0.26,1.035,0.42,1.508c0.741,2.202,2.282,4.902,4.795,5.329c1.8,0.307,3.224-0.568,4.329-1.863   c0.556,2.644,1.775,5.002,4.582,6.127c3.375,1.353,7.294-0.692,9.895-2.729c2.564-2.01,5.133-5.48,4.524-8.928   c-0.689-3.919-4.879-5.142-8.431-5.515c2.553-13.684,7.322-26.679,12.007-39.774c5.002-13.979,8.778-28.589,12.047-43.093   c2.792,1.16,6.116,1.416,8.485-0.713C196.436,61.81,196.649,58.365,196.16,55.621z M139.187,151.596   c-0.755,2.114-2.32,4.365-4.557,4.986c-3.249,0.902-6.148-2.803-7.719-5.131c-0.627-0.929-2.435-1.002-2.654,0.347   c-0.242,1.487-0.536,3.024-1.3,4.342c-0.473,0.813-0.808,0.909-1.325,0.869c-0.236-0.018-1.08-0.599-1.62-1.167   c-0.748-0.786-1.294-1.757-1.759-2.729c-0.827-1.729-1.387-3.999-0.768-5.873c0.521-1.569,2.539-1.89,4.282-2.045   c1.161,0.949,3.167-0.372,2.225-1.834c-5.81-9.006-11.297-18.217-17.977-26.619c-0.55-0.692-1.636-0.375-2.05,0.264   c-5.635,8.69-9.16,18.65-13.688,27.95c-0.072-0.019-0.148-0.04-0.219-0.058c-1.828-0.465-2.596,2.323-0.777,2.819   c1.617,0.441,3.556,1.122,4.721,2.064c0.546,0.441,0.67,0.611,0.921,1.072c0.116,0.213,0.18,0.386,0.155,0.931   c0.001-0.032-0.206,0.739-0.261,0.851c-0.285,0.584-0.562,0.923-0.859,1.261c-0.893,1.014-1.769,1.644-2.911,2.333   c-2.155,1.302-4.725,2.249-7.117,2.168c-0.853-0.029-1.512-0.247-1.992-0.773c-0.01-0.011-0.005-0.005-0.013-0.013   c-0.008-0.016-0.004-0.016-0.033-0.059c-0.062-0.094-0.11-0.197-0.159-0.299c0.122,0.252-0.086-0.35-0.111-0.477   c-0.034-0.168,0.01-1.1,0.1-1.539c0.328-1.604,1.082-3.099,1.868-4.519c0.784-1.418-1.168-3.058-2.301-1.774   c-0.644,0.729-1.61,1.668-2.325,1.948c-0.511,0.199-0.377,0.151-0.801,0.122c0.278,0.02,0.088-0.019-0.063-0.053   c-0.008-0.014-0.097-0.062-0.18-0.106c-0.008-0.023-0.208-0.194-0.246-0.235c-0.035-0.038-0.049-0.05-0.054-0.054   c0.003-0.001-0.004-0.024-0.094-0.167c-0.269-0.431-0.218-0.372-0.356-0.805c-0.269-0.844-0.289-1.326-0.251-2.243   c0.054-1.327,0.643-2.891,1.689-3.522c1.127-0.681,2.474-0.103,3.825,0.361c-0.053,0.144-0.111,0.286-0.163,0.431   c-0.316,0.874,1.092,1.464,1.499,0.632c0.108-0.22,0.218-0.439,0.326-0.66c0.145,0.015,0.292,0.039,0.435,0.035   c0.322-0.009,0.619-0.33,0.504-0.662c-0.078-0.227-0.208-0.419-0.325-0.621c4.121-8.373,8.347-16.74,12.053-25.299   c1.305-3.013,2.122-6.209,3.4-9.231c2.397-5.673,8.263-1.929,11.04,0.761c9.187,8.893,13.196,21.724,19.885,32.282   c0.176,0.276,0.429,0.438,0.703,0.529c-0.024,0.014-0.05,0.025-0.074,0.039c-1.069,0.597-0.343,2.41,0.843,1.999   c2.155-0.747,5.429-2.081,6.883,0.435C140.568,146.811,139.908,149.581,139.187,151.596z M192.471,61.538   c-1.654,1.81-4.417,0.659-6.315-0.152c-0.421-0.83-1.83-0.988-2.122,0.157c-0.019,0.069-0.036,0.137-0.054,0.206   c-0.299,0.36-0.438,0.828-0.325,1.265c-3.772,14.718-7.892,29.46-12.887,43.801c-4.612,13.241-9.653,26.679-11.327,40.679   c-0.521,0.38-0.581,1.187-0.185,1.734c-0.025,0.251-0.058,0.501-0.08,0.753c-0.1,1.116,1.782,1.375,1.961,0.266   c0.021-0.13,0.05-0.257,0.072-0.387c2.388,0.293,5.869,1.048,6.096,3.654c0.212,2.436-1.827,4.641-3.532,6.095   c-1.779,1.518-4.46,2.903-6.858,2.341c-3.308-0.775-3.536-5.663-3.337-8.297c0.107-1.434-2.147-2.077-2.76-0.747   c-0.515,1.12-1.838,4.848-3.648,4.358c-1.333-0.359-2.069-2.56-2.416-3.688c-0.421-1.371-0.775-3.273-0.021-4.591   c0.526-0.92,2.646-0.124,3.062-1.075c0.114,0.614,1.103,0.712,1.262,0.041c3.784-15.921,8.256-31.033,14.123-46.346   c5.835-15.228,12.185-30.301,16.641-46.012c0.42-1.477-1.574-2.183-2.341-1.149c-2.356-0.426-5.581-0.594-6.091-3.419   c-0.379-2.1,1.293-4.537,2.627-5.972c1.192-1.282,3.438-2.971,5.094-2.214c3.127,1.428,2.594,7.565,2.468,10.195   c-0.059,1.211,1.521,1.784,2.333,0.966c1.516-1.527,3.998-3.707,6.343-2.643c1.842,0.836,2.746,2.927,3.158,4.785   C193.792,57.871,193.727,60.164,192.471,61.538z"/></g><g transform="matrix(0.10492023080587387 0 0 0.10492023080587387 165 165)" id="L1_1593"><path d="M73.908,169.828c-3.315-22.193,0.018-45.211-0.349-67.569c-0.434-26.463-2.712-52.912-4.011-79.345   c4.679,0.413,10.091-0.009,12.943-4.122c2.221-3.203,1.226-7.6-0.496-10.764c-1.706-3.136-4.726-6.02-8.415-6.358   c-2.372-0.217-4.128,1.003-5.397,2.742c-0.657-1.797-1.854-3.29-3.915-4.036c-3.667-1.327-7.88,1.118-10.64,3.315   c-3.107,2.474-5.833,6.113-6.145,10.177c-0.345,4.507,3.824,7.601,7.94,8.093c0.749,0.089,1.496,0.148,2.248,0.186   c-5.581,22.248-2.347,46.235-0.573,68.771c2.099,26.663,3.535,53.672,3.735,80.419c-1.742-0.358-3.985,0.195-5.426,0.643   c-1.958,0.606-3.607,1.773-4.74,3.485c-1.931,2.92-1.125,6.809,0.701,9.548c1.871,2.808,5.049,4.903,8.518,4.438   c1.974-0.266,3.495-1.347,4.676-2.802c0.524,1.323,1.443,2.455,2.946,3.182c3.478,1.681,7.79,0.432,10.943-1.403   c3.134-1.823,6.194-5.168,5.795-9.054C83.728,174.331,78.393,171.41,73.908,169.828z M77.043,185.561   c-2.254,1.409-5.283,2.387-7.803,1.57c-2.566-0.831-2.311-4.248-1.685-6.786c0.08-0.284,0.156-0.566,0.224-0.843   c0.502-2.011-2.544-2.852-3.1-0.854c-0.748,2.787-2.022,6.79-5.275,7.478c-1.85,0.392-3.946-1.263-5.041-2.863   c-1.226-1.791-1.853-4.166-0.78-6.093c0.636-1.143,1.861-1.848,3.01-2.376c1.805-0.83,4.461-0.52,5.88-1.942l0.001-0.004   c0.498-0.126,0.919-0.509,0.92-1.178c0.007-26.017-1.292-52.241-3.005-78.199c-1.601-24.262-3.901-48.119-0.686-72.362   c0.082-0.622-0.508-0.921-1.027-0.834c-0.107-0.086-0.234-0.156-0.391-0.193c-3.063-0.732-7.535-2.013-7.526-5.623   c0.008-2.866,2.455-5.775,4.573-7.671c1.193-1.068,2.565-1.949,4.015-2.625c1.155-0.538,2.606-0.818,3.512-0.65   c0.99,0.183,1.685,0.703,2.143,1.817c0.862,2.094,0.67,4.539,0.412,6.729c-0.216,1.83,2.912,2.248,3.216,0.435   c0.36-2.143,0.865-4.306,2.11-6.121c0.691-1.007,1.647-1.431,2.498-1.448c2.255-0.044,4.569,2.409,5.829,4.556   c1.339,2.282,2.06,5.245,0.719,7.498c-2.171,3.646-8.459,2.95-11.913,2.505c-2.074-0.267-2.047,2.983-0.001,3.249   c-1.04,27.495,2.108,54.987,2.627,82.466c0.23,12.163-0.264,24.314-0.696,36.467c-0.327,9.197-0.752,18.894,1.17,27.993   c-0.719,0.722-0.677,2.225,0.597,2.704c0.035,0.013,0.072,0.026,0.107,0.04c0.321,0.549,0.902,0.703,1.432,0.537   c3.286,1.252,7.329,3.069,7.978,6.658C81.514,181.959,79.009,184.331,77.043,185.561z"/><path d="M109.28,12.612c1.632-5.949-2.779-11.809-9.162-11.905c-2.879-0.043-5.674,1.278-7.274,3.686   c-1.58,2.378-1.193,5.304-0.22,7.885c-3.393,0.42-7.098,1.654-7.844,5.273c-0.751,3.65,2.01,7.192,4.605,9.403   c2.791,2.378,6.583,4.04,10.295,3.492c3.794-0.56,5.172-4.231,5.38-7.633c0.103,0.081,0.215,0.157,0.359,0.209   c17.533,6.253,22.403,24.521,21.246,41.563c-1.297,19.1-14.369,29.744-32.108,32.871c-0.018-2.714-0.74-5.374-3.02-7.108   c-2.069-1.573-5.042-1.066-7.143,0.117c-2.268,1.278-3.712,3.659-3.887,6.232c-0.19,2.791,1.602,5.082,3.713,6.759   c-2.235,1.943-4.051,4.451-3.802,7.553c0.252,3.139,2.629,5.611,5.352,6.927c6.656,3.212,13.838-0.998,14.087-8.188   c9.626,1.399,21.564-7.067,27.353-13.149c8.891-9.342,14.026-22.449,15.542-35.121C145.402,39.342,135.152,11.112,109.28,12.612z    M139.015,62.286c-1.585,11.199-6.178,22.187-13.504,30.835c-3.668,4.33-8.246,7.792-13.298,10.343   c-4.242,2.143-8.995,2.214-13.341,3.503c-0.634-0.239-1.406-0.016-1.806,0.637c-0.22,0.089-0.447,0.157-0.665,0.256   c-0.348,0.158-0.349,0.762,0,0.92c0.111,0.05,0.228,0.074,0.34,0.121c-0.296,2.472-0.689,4.92-3.022,6.329   c-1.874,1.133-4.25,0.824-6.198,0.087c-1.849-0.701-3.495-2.237-3.957-4.188c-0.636-2.684,2.112-5.068,4.014-6.41   c0.939-0.662,1.052-2.031,0-2.671c-3.467-2.105-5.831-6.183-1.669-8.99c1.171-0.79,2.714-1.153,4.012-0.466   c2.171,1.148,2.294,4.589,2.353,6.679c0.016,0.562,0.335,0.893,0.726,1.012c0.379,0.448,0.942,0.753,1.659,0.645   c20.237-3.068,33.312-15.635,35.312-36.34c1.665-17.231-4.892-39.544-23.948-43.746c-0.402-0.089-0.724,0.015-0.962,0.207   c-0.124-1.225-1.893-1.194-1.983,0.061c-0.187,2.575-0.829,6.331-4.019,6.599c-2.676,0.224-5.288-1.562-7.237-3.189   c-1.679-1.401-3.724-3.526-3.785-5.86c-0.077-2.95,5.007-3.242,6.989-3.343c1.23-0.062,1.996-1.319,1.392-2.426   c-1.129-2.071-2.125-4.673-0.83-6.893c0.897-1.538,2.87-2.093,4.531-2.131c1.951-0.045,3.791,0.762,5.084,2.209   c1.743,1.95,1.188,4.531,0.834,6.871c-1.827,0.345-1.272,3.203,0.507,3.246c11.508,0.277,20.934,2.943,27.367,13.205   C139.903,38.956,140.554,51.408,139.015,62.286z"/></g><path d="M165,0C74.019,0,0,74.019,0,165s74.019,165,165,165c90.982,0,165-74.019,165-165S255.982,0,165,0z" transform="matrix(0.03030303120613098 0 0 0.03030303120613098 82.5 257.5)" id="L1_1595" fill="#cb8fbb"/><g transform="matrix(-0.30553632974624634 0 0 0.30553632974624634 204.88512063026428 232.49999940324938)" id="L1_1596"><path d="M70.633,145.703c-1.449-2.054-4.047-2.23-6.243-1.407c-6.466-13.32-10.328-27.634-16.858-40.913   c-6.18-12.567-14.384-24.404-18.299-37.914c0.217-0.127,0.366-0.348,0.323-0.683c-0.46-3.594-1.339-7.103-2.449-10.55   c-0.735-2.281-1.521-5.015-2.836-7.206c2.821-0.533,5.631-1.825,6.158-4.859c0.564-3.25-1.683-6.318-4.05-8.285   c-2.643-2.196-6.154-3.662-9.612-2.863c-3.073,0.71-4.74,3.244-5.63,6.062c-1.452-1.868-3.423-3.18-5.879-2.076   c-2.826,1.271-4.189,4.967-4.813,7.761c-0.625,2.797-0.914,6.818,1.385,8.984c2.867,2.701,6.885,0.007,9.348-2.088   c0.528,2.627,1.827,5.227,2.862,7.664c1.276,3.004,2.634,5.874,4.582,8.509c0.001,0.001,0.003,0.002,0.004,0.003   c4.064,14.974,11.314,28.77,17.532,42.94c6.222,14.178,9.07,29.752,17.389,42.999c-2.796,0.503-5.52,1.821-6.774,4.491   c-1.168,2.487-0.191,5.196,1.622,7.076c1.623,1.682,4.139,2.657,6.441,2.036c2.269-0.611,3.283-2.69,3.684-4.85   c2.219,1.247,4.671,1.707,7.224,0.582c2.865-1.262,4.628-4.513,5.488-7.361C71.988,151.249,72.221,147.955,70.633,145.703z    M68.722,153.065c-0.563,2.08-1.718,4.194-3.551,5.403c-2.371,1.564-4.939,0.282-6.829-1.396c-0.909-0.808-2.346-0.271-2.383,0.987   c-0.047,1.627-0.233,4.06-2.149,4.526c-1.27,0.311-2.668-0.726-3.476-1.573c-3.329-3.488,1.651-6.224,4.75-7.725   c0.39,0.008,0.767-0.171,0.998-0.478c0.043-0.021,0.092-0.044,0.133-0.063c0.506-0.244,0.363-0.965-0.078-1.163   c-7.387-13.41-10.628-28.051-16.725-41.938c-6.895-15.705-14.944-30.919-20.387-47.228c-0.111-0.333-0.393-0.451-0.658-0.42   c-0.783-1.834-1.575-3.665-2.338-5.508c-1.132-2.734-1.863-5.803-3.502-8.275c-0.281-0.424-0.701-0.477-1.027-0.309   c-0.242-0.161-0.551-0.204-0.841-0.006c-1.604,1.094-5.37,3.75-7.068,1.874c-1.296-1.432-0.863-4.458-0.459-6.263   c0.454-2.027,1.427-4.737,3.181-5.795c0.508-0.307,0.929-0.35,1.562,0.149c1.292,1.02,2.019,2.711,2.64,4.183   c0.661,1.565,2.661,0.513,2.816-0.763c0.333-2.744,1.232-6.37,4.282-7.186c2.14-0.573,4.623,0.635,6.272,1.916   c1.577,1.226,3.322,3.188,3.358,5.154c0.043,2.32-3.845,2.767-5.875,2.859c-2.137,0.097-2.147,3.425,0,3.328   c0.016-0.001,0.034-0.002,0.05-0.003c0.555,2.627,2.006,5.174,2.946,7.64c0.781,2.05,1.506,4.112,2.219,6.179   c0.96,14.405,10.059,27.749,16.541,40.174c7.388,14.162,10.343,31.079,19.055,44.492c-0.329,0.89,0.252,2.074,1.38,1.661   c0.022-0.008,0.048-0.02,0.071-0.028c0.527,0.14,1.077-0.101,1.364-0.543c1.312-0.503,2.761-0.849,3.596,0.477   C69.597,149.004,69.181,151.367,68.722,153.065z"/><path d="M196.16,55.621c-0.482-2.698-2.089-5.592-4.67-6.763c-2.518-1.142-5.018-0.351-7.117,1.115   c-0.054-3.628-0.709-7.823-3.897-9.468c-2.908-1.501-6.17,0.431-8.216,2.491c-2.233,2.248-3.901,5.484-3.346,8.713   c0.611,3.556,4.713,4.861,7.962,4.446c-4.406,15.275-10.647,29.906-16.397,44.706c-5.607,14.435-11.979,30.443-12.664,46.125   c-0.477-1.822-3.562-1.38-5.043-0.311c-0.152-1.237-0.543-2.418-1.251-3.404c-1.852-2.578-5.128-2.644-7.916-1.685   c0.074-0.23,0.095-0.486-0.018-0.782c-2.524-6.636-6.545-13.019-10.154-19.102c-3.564-6.01-7.847-13.223-13.993-16.938   c-5.438-3.285-10.145-1.403-12.295,4.275c-4.213,11.125-9.6,21.76-13.845,32.866c-1.734-1.102-4.25-1.288-5.968-0.559   c-2.295,0.977-3.201,3.722-3.349,6.004c-0.144,2.229,0.541,4.745,2.444,6.071c0.856,0.598,1.762,0.703,2.646,0.521   c-0.428,1.681-0.464,3.4,0.383,4.906c1.298,2.309,4.217,2.536,6.558,2.214c4.593-0.635,11.724-4.046,12.044-9.394   c0.203-3.386-3.162-5.226-6.13-6.225c5.62-7.739,8.53-17.185,13.305-25.464c5.684,7.438,10.184,15.656,15.307,23.475   c-2.056-0.289-4.154,0.418-5.291,2.47c-1.477,2.664-0.599,6.021,0.56,8.616c1.042,2.336,3.054,5.134,5.827,5.38   c2.613,0.231,3.998-2.066,4.75-4.424c2.233,2.54,5.101,4.525,8.657,3.947c3.092-0.503,5.246-3.259,6.514-5.983   c0.121,0.524,0.26,1.035,0.42,1.508c0.741,2.202,2.282,4.902,4.795,5.329c1.8,0.307,3.224-0.568,4.329-1.863   c0.556,2.644,1.775,5.002,4.582,6.127c3.375,1.353,7.294-0.692,9.895-2.729c2.564-2.01,5.133-5.48,4.524-8.928   c-0.689-3.919-4.879-5.142-8.431-5.515c2.553-13.684,7.322-26.679,12.007-39.774c5.002-13.979,8.778-28.589,12.047-43.093   c2.792,1.16,6.116,1.416,8.485-0.713C196.436,61.81,196.649,58.365,196.16,55.621z M139.187,151.596   c-0.755,2.114-2.32,4.365-4.557,4.986c-3.249,0.902-6.148-2.803-7.719-5.131c-0.627-0.929-2.435-1.002-2.654,0.347   c-0.242,1.487-0.536,3.024-1.3,4.342c-0.473,0.813-0.808,0.909-1.325,0.869c-0.236-0.018-1.08-0.599-1.62-1.167   c-0.748-0.786-1.294-1.757-1.759-2.729c-0.827-1.729-1.387-3.999-0.768-5.873c0.521-1.569,2.539-1.89,4.282-2.045   c1.161,0.949,3.167-0.372,2.225-1.834c-5.81-9.006-11.297-18.217-17.977-26.619c-0.55-0.692-1.636-0.375-2.05,0.264   c-5.635,8.69-9.16,18.65-13.688,27.95c-0.072-0.019-0.148-0.04-0.219-0.058c-1.828-0.465-2.596,2.323-0.777,2.819   c1.617,0.441,3.556,1.122,4.721,2.064c0.546,0.441,0.67,0.611,0.921,1.072c0.116,0.213,0.18,0.386,0.155,0.931   c0.001-0.032-0.206,0.739-0.261,0.851c-0.285,0.584-0.562,0.923-0.859,1.261c-0.893,1.014-1.769,1.644-2.911,2.333   c-2.155,1.302-4.725,2.249-7.117,2.168c-0.853-0.029-1.512-0.247-1.992-0.773c-0.01-0.011-0.005-0.005-0.013-0.013   c-0.008-0.016-0.004-0.016-0.033-0.059c-0.062-0.094-0.11-0.197-0.159-0.299c0.122,0.252-0.086-0.35-0.111-0.477   c-0.034-0.168,0.01-1.1,0.1-1.539c0.328-1.604,1.082-3.099,1.868-4.519c0.784-1.418-1.168-3.058-2.301-1.774   c-0.644,0.729-1.61,1.668-2.325,1.948c-0.511,0.199-0.377,0.151-0.801,0.122c0.278,0.02,0.088-0.019-0.063-0.053   c-0.008-0.014-0.097-0.062-0.18-0.106c-0.008-0.023-0.208-0.194-0.246-0.235c-0.035-0.038-0.049-0.05-0.054-0.054   c0.003-0.001-0.004-0.024-0.094-0.167c-0.269-0.431-0.218-0.372-0.356-0.805c-0.269-0.844-0.289-1.326-0.251-2.243   c0.054-1.327,0.643-2.891,1.689-3.522c1.127-0.681,2.474-0.103,3.825,0.361c-0.053,0.144-0.111,0.286-0.163,0.431   c-0.316,0.874,1.092,1.464,1.499,0.632c0.108-0.22,0.218-0.439,0.326-0.66c0.145,0.015,0.292,0.039,0.435,0.035   c0.322-0.009,0.619-0.33,0.504-0.662c-0.078-0.227-0.208-0.419-0.325-0.621c4.121-8.373,8.347-16.74,12.053-25.299   c1.305-3.013,2.122-6.209,3.4-9.231c2.397-5.673,8.263-1.929,11.04,0.761c9.187,8.893,13.196,21.724,19.885,32.282   c0.176,0.276,0.429,0.438,0.703,0.529c-0.024,0.014-0.05,0.025-0.074,0.039c-1.069,0.597-0.343,2.41,0.843,1.999   c2.155-0.747,5.429-2.081,6.883,0.435C140.568,146.811,139.908,149.581,139.187,151.596z M192.471,61.538   c-1.654,1.81-4.417,0.659-6.315-0.152c-0.421-0.83-1.83-0.988-2.122,0.157c-0.019,0.069-0.036,0.137-0.054,0.206   c-0.299,0.36-0.438,0.828-0.325,1.265c-3.772,14.718-7.892,29.46-12.887,43.801c-4.612,13.241-9.653,26.679-11.327,40.679   c-0.521,0.38-0.581,1.187-0.185,1.734c-0.025,0.251-0.058,0.501-0.08,0.753c-0.1,1.116,1.782,1.375,1.961,0.266   c0.021-0.13,0.05-0.257,0.072-0.387c2.388,0.293,5.869,1.048,6.096,3.654c0.212,2.436-1.827,4.641-3.532,6.095   c-1.779,1.518-4.46,2.903-6.858,2.341c-3.308-0.775-3.536-5.663-3.337-8.297c0.107-1.434-2.147-2.077-2.76-0.747   c-0.515,1.12-1.838,4.848-3.648,4.358c-1.333-0.359-2.069-2.56-2.416-3.688c-0.421-1.371-0.775-3.273-0.021-4.591   c0.526-0.92,2.646-0.124,3.062-1.075c0.114,0.614,1.103,0.712,1.262,0.041c3.784-15.921,8.256-31.033,14.123-46.346   c5.835-15.228,12.185-30.301,16.641-46.012c0.42-1.477-1.574-2.183-2.341-1.149c-2.356-0.426-5.581-0.594-6.091-3.419   c-0.379-2.1,1.293-4.537,2.627-5.972c1.192-1.282,3.438-2.971,5.094-2.214c3.127,1.428,2.594,7.565,2.468,10.195   c-0.059,1.211,1.521,1.784,2.333,0.966c1.516-1.527,3.998-3.707,6.343-2.643c1.842,0.836,2.746,2.927,3.158,4.785   C193.792,57.871,193.727,60.164,192.471,61.538z"/></g></defs><g fi:class="KUsePattern"><pattern id="pattern_L1_1588" width="350" height="350" patternUnits="userSpaceOnUse"><use xlink:href="#L1_1588" x="-350" y="-350"/><use xlink:href="#L1_1588" x="0" y="-350"/><use xlink:href="#L1_1588" x="350" y="-350"/><use xlink:href="#L1_1588" x="-350" y="0"/><use xlink:href="#L1_1588" x="0" y="0"/><use xlink:href="#L1_1588" x="350" y="0"/><use xlink:href="#L1_1588" x="-350" y="350"/><use xlink:href="#L1_1588" x="0" y="350"/><use xlink:href="#L1_1588" x="350" y="350"/></pattern><rect x="0" y="0" width="100%" height="100%" fill="url(#pattern_L1_1588)"/></g><g fi:class="KUsePattern"><pattern id="pattern_L1_1594" width="350" height="350" patternUnits="userSpaceOnUse"><use xlink:href="#L1_1594" x="-350" y="-350"/><use xlink:href="#L1_1594" x="0" y="-350"/><use xlink:href="#L1_1594" x="350" y="-350"/><use xlink:href="#L1_1594" x="-350" y="0"/><use xlink:href="#L1_1594" x="0" y="0"/><use xlink:href="#L1_1594" x="350" y="0"/><use xlink:href="#L1_1594" x="-350" y="350"/><use xlink:href="#L1_1594" x="0" y="350"/><use xlink:href="#L1_1594" x="350" y="350"/></pattern><rect x="0" y="0" width="100%" height="100%" fill="url(#pattern_L1_1594)"/></g><g fi:class="KUsePattern"><pattern id="pattern_L1_1590" width="350" height="350" patternUnits="userSpaceOnUse"><use xlink:href="#L1_1590" x="-350" y="-350"/><use xlink:href="#L1_1590" x="0" y="-350"/><use xlink:href="#L1_1590" x="350" y="-350"/><use xlink:href="#L1_1590" x="-350" y="0"/><use xlink:href="#L1_1590" x="0" y="0"/><use xlink:href="#L1_1590" x="350" y="0"/><use xlink:href="#L1_1590" x="-350" y="350"/><use xlink:href="#L1_1590" x="0" y="350"/><use xlink:href="#L1_1590" x="350" y="350"/></pattern><rect x="0" y="0" width="100%" height="100%" fill="url(#pattern_L1_1590)"/></g><g fi:class="KUsePattern"><pattern id="pattern_L1_1591" width="350" height="350" patternUnits="userSpaceOnUse"><use xlink:href="#L1_1591" x="-350" y="-350"/><use xlink:href="#L1_1591" x="0" y="-350"/><use xlink:href="#L1_1591" x="350" y="-350"/><use xlink:href="#L1_1591" x="-350" y="0"/><use xlink:href="#L1_1591" x="0" y="0"/><use xlink:href="#L1_1591" x="350" y="0"/><use xlink:href="#L1_1591" x="-350" y="350"/><use xlink:href="#L1_1591" x="0" y="350"/><use xlink:href="#L1_1591" x="350" y="350"/></pattern><rect x="0" y="0" width="100%" height="100%" fill="url(#pattern_L1_1591)"/></g><g fi:class="KUsePattern"><pattern id="pattern_L1_1592" width="350" height="350" patternUnits="userSpaceOnUse"><use xlink:href="#L1_1592" x="-350" y="-350"/><use xlink:href="#L1_1592" x="0" y="-350"/><use xlink:href="#L1_1592" x="350" y="-350"/><use xlink:href="#L1_1592" x="-350" y="0"/><use xlink:href="#L1_1592" x="0" y="0"/><use xlink:href="#L1_1592" x="350" y="0"/><use xlink:href="#L1_1592" x="-350" y="350"/><use xlink:href="#L1_1592" x="0" y="350"/><use xlink:href="#L1_1592" x="350" y="350"/></pattern><rect x="0" y="0" width="100%" height="100%" fill="url(#pattern_L1_1592)"/></g><g fi:class="KUsePattern"><pattern id="pattern_L1_1593" width="350" height="350" patternUnits="userSpaceOnUse"><use xlink:href="#L1_1593" x="-350" y="-350"/><use xlink:href="#L1_1593" x="0" y="-350"/><use xlink:href="#L1_1593" x="350" y="-350"/><use xlink:href="#L1_1593" x="-350" y="0"/><use xlink:href="#L1_1593" x="0" y="0"/><use xlink:href="#L1_1593" x="350" y="0"/><use xlink:href="#L1_1593" x="-350" y="350"/><use xlink:href="#L1_1593" x="0" y="350"/><use xlink:href="#L1_1593" x="350" y="350"/></pattern><rect x="0" y="0" width="100%" height="100%" fill="url(#pattern_L1_1593)"/></g><g fi:class="KUsePattern"><pattern id="pattern_L1_1595" width="350" height="350" patternUnits="userSpaceOnUse"><use xlink:href="#L1_1595" x="-350" y="-350"/><use xlink:href="#L1_1595" x="0" y="-350"/><use xlink:href="#L1_1595" x="350" y="-350"/><use xlink:href="#L1_1595" x="-350" y="0"/><use xlink:href="#L1_1595" x="0" y="0"/><use xlink:href="#L1_1595" x="350" y="0"/><use xlink:href="#L1_1595" x="-350" y="350"/><use xlink:href="#L1_1595" x="0" y="350"/><use xlink:href="#L1_1595" x="350" y="350"/></pattern><rect x="0" y="0" width="100%" height="100%" fill="url(#pattern_L1_1595)"/></g><g fi:class="KUsePattern"><pattern id="pattern_L1_1596" width="350" height="350" patternUnits="userSpaceOnUse"><use xlink:href="#L1_1596" x="-350" y="-350"/><use xlink:href="#L1_1596" x="0" y="-350"/><use xlink:href="#L1_1596" x="350" y="-350"/><use xlink:href="#L1_1596" x="-350" y="0"/><use xlink:href="#L1_1596" x="0" y="0"/><use xlink:href="#L1_1596" x="350" y="0"/><use xlink:href="#L1_1596" x="-350" y="350"/><use xlink:href="#L1_1596" x="0" y="350"/><use xlink:href="#L1_1596" x="350" y="350"/></pattern><rect x="0" y="0" width="100%" height="100%" fill="url(#pattern_L1_1596)"/></g></svg>